#!OML:ASF E:\id_vita\Project 1\Capture day 1\Session 1\Female.ASF
:FULLY-SPECIFIED
:DEGREES
314
root 30.1662 16.409 2.87005 -152.347 -76.0967 171.122
lowerback -2.91148 1.08885 -0.792795
upperback -5.4253 1.32985 0.752366
thorax -3.99411 0.647925 1.21512
lowerneck 6.85237 4.76495 -1.74675
upperneck -7.22079 6.14191 -0.617284
head -3.58854 3.11209 -0.220182
rclavicle 1.26228e-014 1.98785e-014
rhumerus -16.4739 -1.06344 -40.7426
rradius 123.181
rwrist 8.42704
rhand -41.2713 21.1622
rfingers 7.12502
rthumb -14.1931 -8.33289
lclavicle 1.26228e-014 1.98785e-014
lhumerus 6.6641 6.31032 47.6421
lradius 109.737
lwrist -4.22646
lhand -33.5164 26.9694
lfingers 7.12502
lthumb -6.71276 56.843
rfemur -52.2626 1.01106 14.8804
rtibia 52.1534
rfoot -9.01665 -13.4864
rtoes -23.0246
lfemur -26.2533 0.25916 -32.6516
ltibia 29.4544
lfoot -17.0369 20.9722
ltoes 9.36925
315
root 30.2312 16.4191 2.87016 -153.119 -76.1431 171.731
lowerback -2.54802 1.07362 -0.865871
upperback -5.75832 1.30067 0.907891
thorax -4.55392 0.638642 1.40847
lowerneck 6.94353 4.69959 -1.48054
upperneck -6.53968 6.06712 -0.85382
head -3.34975 3.07774 -0.327647
rclavicle 3.61788e-014 8.74653e-015
rhumerus -17.0779 -0.299852 -41.3256
rradius 122.954
rwrist 8.31665
rhand -41.0308 20.9706
rfingers 7.12502
rthumb -13.9613 -8.54066
lclavicle 3.61788e-014 8.74653e-015
lhumerus 5.55475 5.71851 47.9765
lradius 110.122
lwrist -3.51807
lhand -32.8871 26.757
lfingers 7.12502
lthumb -6.10521 56.6491
rfemur -51.9414 1.14564 14.8796
rtibia 53.5225
rfoot -8.81601 -13.3358
rtoes -23.4999
lfemur -26.3741 -0.0229823 -32.3618
ltibia 29.5181
lfoot -16.7613 21.3311
ltoes 9.46173
316
root 30.2921 16.432 2.87067 -154.558 -76.1777 172.956
lowerback -2.66109 1.10589 -0.600325
upperback -5.67444 1.34723 0.925068
thorax -4.39661 0.650715 1.2794
lowerneck 6.9907 4.64269 -1.28984
upperneck -6.36591 6.01365 -0.829483
head -3.29246 3.04551 -0.347466
rclavicle -2.98177e-016 6.36111e-015
rhumerus -17.3524 0.0240451 -42.2726
rradius 122.553
rwrist 8.47003
rhand -40.9471 20.3775
rfingers 7.12502
rthumb -13.8807 -9.13926
lclavicle -2.98177e-016 6.36111e-015
lhumerus 5.06429 5.27714 48.23
lradius 110.273
lwrist -3.03191
lhand -32.2969 26.7962
lfingers 7.12502
lthumb -5.53539 56.7039
rfemur -51.4885 1.3696 15.0349
rtibia 54.8563
rfoot -8.47262 -13.239
rtoes -23.7087
lfemur -26.4038 -0.24237 -31.9257
ltibia 29.6022
lfoot -16.5832 21.9063
ltoes 9.57698
317
root 30.348 16.4449 2.87236 -156.186 -76.1561 174.32
lowerback -2.84622 1.15554 -0.591906
upperback -5.4739 1.42564 1.16238
thorax -4.09065 0.695447 1.52359
lowerneck 6.95704 4.58777 -1.32802
upperneck -6.26273 5.93018 -0.921234
head -3.2483 3.00853 -0.363295
rclavicle 2.75317e-014 1.59028e-014
rhumerus -17.3707 0.400208 -42.9542
rradius 121.979
rwrist 8.93775
rhand -40.8777 19.3006
rfingers 7.12502
rthumb -13.8138 -10.2207
lclavicle 2.75317e-014 1.59028e-014
lhumerus 4.4 4.97692 48.8841
lradius 110.487
lwrist -2.66031
lhand -31.5003 26.9222
lfingers 7.12502
lthumb -4.7662 56.8486
rfemur -50.9501 1.57732 15.2452
rtibia 56.1618
rfoot -8.4802 -13.2621
rtoes -23.5596
lfemur -26.3228 -0.364359 -31.4984
ltibia 29.656
lfoot -16.5367 21.8964
ltoes 10.5978
318
root 30.4123 16.4536 2.87248 -156.798 -76.2275 174.723
lowerback -2.76681 1.10729 -0.584036
upperback -5.50412 1.36222 1.23243
thorax -4.16682 0.664969 1.59052
lowerneck 7.13569 4.64082 -1.26481
upperneck -6.27192 6.00281 -0.947915
head -3.28282 3.04433 -0.391832
rclavicle 4.47266e-015 8.74653e-015
rhumerus -17.8114 1.13592 -43.8134
rradius 121.488
rwrist 9.19317
rhand -40.5865 18.4538
rfingers 7.12502
rthumb -13.5331 -11.0864
lclavicle 4.47266e-015 8.74653e-015
lhumerus 3.44714 4.51801 49.2728
lradius 110.78
lwrist -2.12395
lhand -30.3864 27.0225
lfingers 7.12502
lthumb -3.69061 56.9703
rfemur -50.5556 1.64165 15.2532
rtibia 57.4619
rfoot -8.56666 -13.2998
rtoes -23.3353
lfemur -26.3514 -0.403072 -31.32
ltibia 29.6753
lfoot -16.3404 22.1429
ltoes 10.1904
319
root 30.4752 16.4638 2.87101 -157.081 -76.279 174.764
lowerback -2.64294 1.0408 -0.641811
upperback -5.54893 1.2734 1.25186
thorax -4.28277 0.6238 1.64165
lowerneck 7.40798 4.68039 -1.21028
upperneck -6.24716 6.06037 -0.915143
head -3.32603 3.07053 -0.401205
rclavicle 1.55549e-014 3.65764e-014
rhumerus -18.4444 1.97402 -44.6663
rradius 121.067
rwrist 9.08735
rhand -40.0649 17.9347
rfingers 7.12502
rthumb -13.0303 -11.6383
lclavicle 1.55549e-014 3.65764e-014
lhumerus 2.37962 3.98763 49.5871
lradius 111.024
lwrist -1.59973
lhand -29.3755 27.0587
lfingers 7.12502
lthumb -2.71433 57.0212
rfemur -50.1033 1.7355 15.148
rtibia 58.7427
rfoot -8.62417 -13.2198
rtoes -23.0806
lfemur -26.3718 -0.320922 -31.2719
ltibia 29.6911
lfoot -15.9559 21.8166
ltoes 10.7449
320
root 30.5298 16.4749 2.87114 -157.86 -76.2194 175.308
lowerback -2.74485 1.04935 -0.686883
upperback -5.38964 1.2918 1.33298
thorax -4.06234 0.637196 1.75292
lowerneck 7.04178 4.66558 -1.12752
upperneck -5.93945 6.05498 -0.941817
head -3.14531 3.06635 -0.406219
rclavicle -1.68967e-015 -1.43125e-014
rhumerus -18.7942 2.44859 -45.5546
rradius 120.472
rwrist 8.96717
rhand -39.5497 17.4788
rfingers 7.12502
rthumb -12.5337 -12.1253
lclavicle -1.68967e-015 -1.43125e-014
lhumerus 1.43937 3.52118 50.0653
lradius 111.245
lwrist -1.09469
lhand -28.7404 27.1254
lfingers 7.12502
lthumb -2.10101 57.0948
rfemur -49.582 1.91637 15.1576
rtibia 59.9961
rfoot -8.65397 -13.3128
rtoes -23.2966
lfemur -26.3516 -0.368347 -31.1
ltibia 29.7102
lfoot -15.5762 21.9463
ltoes 10.7027
321
root 30.5899 16.4825 2.87148 -159.016 -76.2051 176.279
lowerback -2.501 1.10904 -0.686122
upperback -5.40373 1.37622 1.44479
thorax -4.22117 0.683171 1.86283
lowerneck 6.48669 4.5867 -0.897478
upperneck -5.40962 5.97269 -1.09479
head -2.84542 3.02478 -0.462729
rclavicle 1.28216e-014 -1.19271e-014
rhumerus -19.2823 2.88277 -46.5532
rradius 119.737
rwrist 8.81353
rhand -38.8469 17.0614
rfingers 7.12502
rthumb -11.856 -12.583
lclavicle 1.28216e-014 -1.19271e-014
lhumerus 0.370101 2.77376 50.5924
lradius 111.42
lwrist -0.567899
lhand -28.1988 27.2209
lfingers 7.12502
lthumb -1.57788 57.1948
rfemur -49.1449 2.0833 15.3336
rtibia 61.2196
rfoot -8.40044 -13.6373
rtoes -23.6675
lfemur -26.3927 -0.564208 -30.7511
ltibia 29.7542
lfoot -15.2015 22.3059
ltoes 10.342
322
root 30.6542 16.4897 2.87073 -160.036 -76.2053 177.157
lowerback -2.50346 1.05284 -0.599023
upperback -5.37012 1.30401 1.54399
thorax -4.18218 0.645412 1.91779
lowerneck 6.55965 4.6193 -0.781574
upperneck -5.34652 6.01634 -1.24719
head -2.82862 3.04949 -0.533693
rclavicle 7.15625e-015 -1.03368e-014
rhumerus -19.5629 3.57502 -47.7529
rradius 118.917
rwrist 8.60689
rhand -37.9874 16.7306
rfingers 7.12502
rthumb -11.0271 -12.9597
lclavicle 7.15625e-015 -1.03368e-014
lhumerus -0.902325 2.24513 50.9755
lradius 111.457
lwrist -0.257294
lhand -27.6009 27.0504
lfingers 7.12502
lthumb -1.00044 57.0278
rfemur -48.7883 2.21618 15.5243
rtibia 62.4064
rfoot -8.05742 -13.8765
rtoes -23.8983
lfemur -26.5257 -0.718883 -30.4056
ltibia 29.8481
lfoot -14.913 22.6658
ltoes 10.0504
